<?xml version="1.0" encoding="UTF-8"?>
<svg width="64px" height="88px" viewBox="0 0 64 88" version="1.1" xmlns="http://www.w3.org/2000/svg" xmlns:xlink="http://www.w3.org/1999/xlink">
    <!-- Generator: Sketch 53.2 (72643) - https://sketchapp.com -->
    <title>Group 8</title>
    <desc>Created with Sketch.</desc>
    <g id="enterprise" stroke="none" stroke-width="1" fill="none" fill-rule="evenodd">
        <g id="Welcome-modal" transform="translate(-834.000000, -423.000000)">
            <g id="Group-10" transform="translate(404.000000, 218.000000)">
                <g id="Group-8" transform="translate(430.000000, 205.000000)">
                    <rect id="Rectangle" fill="#17BC8B" x="0" y="39" width="22.0327869" height="4" rx="2"></rect>
                    <path d="M34.6229508,31 C21.295686,31 10.4918033,24.0604136 10.4918033,15.5 C10.4918033,6.93958638 21.295686,0 34.6229508,0 C47.9502156,0 58.7540984,6.93958638 58.7540984,15.5 C58.7540984,24.0604136 47.9502156,31 34.6229508,31 Z M35.147541,29 C46.4467437,29 55.6065574,23.1797017 55.6065574,16 C55.6065574,8.82029825 46.4467437,3 35.147541,3 C23.8483382,3 14.6885246,8.82029825 14.6885246,16 C14.6885246,23.1797017 23.8483382,29 35.147541,29 Z" id="Combined-Shape" fill="#19BD8E"></path>
                    <rect id="Rectangle" fill="#B0AFF3" x="18.8852459" y="13" width="29.3770492" height="47" rx="14.6885246"></rect>
                    <path d="M47.1342574,38.8400217 L60.4390816,29.41829 C61.4538813,28.6996657 62.859099,28.9397632 63.5777233,29.9545628 C63.5823168,29.9610496 63.586876,29.9675606 63.5914006,29.9740957 L63.5914006,29.9740957 C64.3089821,31.010524 64.0584476,32.4314606 63.029677,33.1599783 L49.7248528,42.58171 C48.7100532,43.3003343 47.3048354,43.0602368 46.5862112,42.0454372 C46.5816176,42.0389504 46.5770584,42.0324394 46.5725338,42.0259043 L46.5725338,42.0259043 C45.8549523,40.989476 46.1054868,39.5685394 47.1342574,38.8400217 Z" id="Rectangle" fill="#17BC8B"></path>
                    <path d="M20.9754098,74.4016393 L37.7786885,74.4016393 C38.9375811,74.4016393 39.8770492,75.3411074 39.8770492,76.5 L39.8770492,76.5 C39.8770492,77.6588926 38.9375811,78.5983607 37.7786885,78.5983607 L20.9754098,78.5983607 C19.8165172,78.5983607 18.8770492,77.6588926 18.8770492,76.5 L18.8770492,76.5 C18.8770492,75.3411074 19.8165172,74.4016393 20.9754098,74.4016393 Z" id="Rectangle" fill="#B3AEEF" transform="translate(29.377049, 76.500000) rotate(-90.000000) translate(-29.377049, -76.500000) "></path>
                    <path d="M34.3442623,68.8770492 L44.3442623,68.8770492 C45.7249742,68.8770492 46.8442623,69.9963373 46.8442623,71.3770492 L46.8442623,71.6229508 C46.8442623,73.0036627 45.7249742,74.1229508 44.3442623,74.1229508 L34.3442623,74.1229508 C32.9635504,74.1229508 31.8442623,73.0036627 31.8442623,71.6229508 L31.8442623,71.3770492 C31.8442623,69.9963373 32.9635504,68.8770492 34.3442623,68.8770492 Z" id="Rectangle" fill="#7F5FE2" transform="translate(39.344262, 71.500000) rotate(-90.000000) translate(-39.344262, -71.500000) "></path>
                    <path d="M39.3442623,82.8770492 L39.3442623,82.8770492 C40.7249742,82.8770492 41.8442623,83.9963373 41.8442623,85.3770492 L41.8442623,85.6229508 C41.8442623,87.0036627 40.7249742,88.1229508 39.3442623,88.1229508 L39.3442623,88.1229508 C37.9635504,88.1229508 36.8442623,87.0036627 36.8442623,85.6229508 L36.8442623,85.3770492 C36.8442623,83.9963373 37.9635504,82.8770492 39.3442623,82.8770492 Z" id="Rectangle" fill="#7F5FE2" transform="translate(39.344262, 85.500000) rotate(-90.000000) translate(-39.344262, -85.500000) "></path>
                    <path d="M47.5056783,23.4619244 C47.9966896,24.9568193 48.2622951,26.5539493 48.2622951,28.2131148 L48.2622951,44.7868852 C48.2622951,53.1888565 41.4511516,60 33.0491803,60 C26.2189569,60 20.4400431,55.4988088 18.5169547,49.3009424 L47.5056783,23.4619244 Z" id="Combined-Shape" fill="#EAE5FD"></path>
                    <ellipse id="Oval" fill="#030403" cx="34.6229508" cy="29" rx="11.5409836" ry="11"></ellipse>
                    <ellipse id="Oval" fill="#1BBA8D" cx="34.0983607" cy="29" rx="5.7704918" ry="6"></ellipse>
                    <ellipse id="Oval" fill="#030403" cx="34.6229508" cy="29.5" rx="2.09836066" ry="2.5"></ellipse>
                </g>
            </g>
        </g>
    </g>
</svg>