<?xml version="1.0" encoding="UTF-8"?>
<svg width="88px" height="64px" viewBox="0 0 88 64" version="1.1" xmlns="http://www.w3.org/2000/svg" xmlns:xlink="http://www.w3.org/1999/xlink">
    <!-- Generator: Sketch 53.2 (72643) - https://sketchapp.com -->
    <title>Group 7</title>
    <desc>Created with Sketch.</desc>
    <g id="enterprise" stroke="none" stroke-width="1" fill="none" fill-rule="evenodd">
        <g id="Welcome-modal" transform="translate(-533.000000, -432.000000)">
            <g id="Group-10" transform="translate(404.000000, 218.000000)">
                <g id="Group-7" transform="translate(129.000000, 214.000000)">
                    <rect id="Rectangle" fill="#17BC8B" x="18.7865169" y="58.3529412" width="25.7078652" height="5.64705882" rx="2.5"></rect>
                    <rect id="Rectangle" fill="#17BC8B" x="47.4606742" y="58.3529412" width="5.93258427" height="5.64705882" rx="2.5"></rect>
                    <path d="M28.2273629,0.949107733 L30.1097158,0.949107733 C38.9462718,0.949107733 46.1097158,8.11255174 46.1097158,16.9491077 L46.1097158,43.2861864 C46.1097158,52.1227424 38.9462718,59.2861864 30.1097158,59.2861864 L28.2273629,59.2861864 C19.3908069,59.2861864 12.2273629,52.1227424 12.2273629,43.2861864 L12.2273629,16.9491077 C12.2273629,8.11255174 19.3908069,0.949107733 28.2273629,0.949107733 Z" id="Rectangle" fill="#B0AFF3" transform="translate(29.168539, 30.117647) rotate(90.000000) translate(-29.168539, -30.117647) "></path>
                    <path d="M54.2101523,7.99948053 C54.3233768,8.76755867 54.3820225,9.55340121 54.3820225,10.3529412 L54.3820225,34.8235294 C54.3820225,43.6600854 47.2185785,50.8235294 38.3820225,50.8235294 L34.7865169,50.8235294 C27.5684722,50.8235294 21.4667716,46.0438922 19.4737363,39.476939 L54.2101523,7.99948053 Z" id="Combined-Shape" fill="#EAE5FD" transform="translate(37.078652, 29.647059) rotate(-90.000000) translate(-37.078652, -29.647059) "></path>
                    <ellipse id="Oval" fill="#030403" cx="18.7865169" cy="29.6470588" rx="13.8426966" ry="13.6470588"></ellipse>
                    <ellipse id="Oval" fill="#1BBA8D" cx="18.2921348" cy="29.6470588" rx="7.41573034" ry="7.05882353"></ellipse>
                    <ellipse id="Oval" fill="#030403" cx="18.7865169" cy="29.6470588" rx="2.96629213" ry="2.35294118"></ellipse>
                    <path d="M42.0768907,7.09691338 L42.649697,7.87784598 L48.8525227,14.1176471 L54.7333464,12.3995102 L56.3595506,6.44179773 L50.5942673,0.142743908 C51.1829937,0.0488630226 51.7877492,0 52.4044944,0 C58.4113667,0 63.2808989,4.63516965 63.2808989,10.3529412 C63.2808989,16.0707127 58.4113667,20.7058824 52.4044944,20.7058824 C46.397622,20.7058824 41.5280899,16.0707127 41.5280899,10.3529412 C41.5280899,9.21542651 41.7208191,8.12075971 42.0768907,7.09691338 Z" id="Combined-Shape" fill="#000000"></path>
                    <path d="M51.4157303,16.3675684 L56.0044603,12.9365702 C57.9489508,11.4826727 60.6568749,11.6358109 62.4250506,13.2996666 L86.4882108,35.9431337 C88.3876315,37.7304912 88.4784767,40.7192155 86.6911192,42.6186362 C86.6277879,42.6859382 86.5624947,42.7513668 86.4953239,42.8148372 L86.2995423,42.9998337 C84.3681144,44.8248639 81.346536,44.8203232 79.420602,42.9894962 L51.4157303,16.3675684 Z" id="Rectangle" fill="#000000"></path>
                </g>
            </g>
        </g>
    </g>
</svg>
