<?xml version="1.0" standalone="no"?>
<!DOCTYPE svg PUBLIC "-//W3C//DTD SVG 20010904//EN"
 "http://www.w3.org/TR/2001/REC-SVG-20010904/DTD/svg10.dtd">
<svg version="1.0" xmlns="http://www.w3.org/2000/svg"
 width="700.000000pt" height="700.000000pt" viewBox="0 0 700.000000 700.000000"
 preserveAspectRatio="xMidYMid meet">
<metadata>
Created by potrace 1.11, written by Peter Selinger 2001-2013
</metadata>
<g transform="translate(0.000000,700.000000) scale(0.100000,-0.100000)"
fill="#000000" stroke="none">
<path d="M3413 6950 c-45 -27 -106 -62 -135 -78 -29 -16 -107 -61 -173 -99
-97 -57 -325 -189 -555 -321 -85 -49 -449 -259 -719 -415 -162 -93 -309 -177
-325 -187 -17 -10 -96 -55 -176 -102 -80 -46 -152 -87 -160 -91 -8 -4 -168
-96 -355 -205 l-340 -197 0 -1754 0 -1754 240 -139 c132 -77 263 -152 290
-167 28 -16 160 -92 295 -171 135 -78 261 -151 280 -161 19 -11 51 -29 70 -41
19 -12 53 -31 75 -43 22 -12 94 -54 160 -92 66 -38 269 -156 450 -260 182
-105 503 -291 715 -413 212 -123 400 -231 418 -241 l33 -19 122 71 c67 40 137
80 155 91 61 34 166 94 291 166 69 40 127 72 130 72 2 0 12 6 20 14 9 7 41 27
71 43 30 17 98 55 150 85 121 70 139 81 359 208 100 58 194 112 209 121 15 9
47 27 72 41 25 14 261 151 525 303 264 153 500 289 525 303 25 13 50 27 55 32
6 4 30 19 55 32 25 14 96 55 159 92 62 36 118 66 122 66 5 0 8 761 7 1757 l-3
1758 -375 217 c-206 120 -386 223 -400 231 -14 7 -115 65 -225 129 -110 64
-216 125 -235 135 -19 11 -150 87 -290 168 -140 81 -275 159 -300 173 -25 14
-139 80 -255 147 -115 67 -334 193 -485 279 -151 87 -292 169 -312 182 -21 13
-40 24 -43 24 -2 0 -27 14 -53 30 -27 17 -51 30 -53 30 -2 -1 -41 -23 -86 -50z
m209 -321 c190 -109 259 -150 308 -179 25 -15 65 -39 90 -52 25 -14 117 -67
205 -118 88 -51 176 -102 195 -112 19 -11 166 -96 325 -188 160 -92 306 -177
325 -188 19 -10 76 -43 125 -72 96 -56 136 -79 188 -108 17 -11 136 -79 262
-152 127 -73 249 -143 272 -156 23 -13 92 -53 153 -89 61 -36 115 -65 120 -65
4 0 10 -3 12 -7 2 -5 17 -16 33 -25 l30 -17 0 -1601 0 -1602 -580 -334 c-319
-185 -656 -379 -750 -433 -93 -54 -300 -173 -460 -266 -159 -92 -396 -228
-525 -302 -129 -75 -283 -164 -342 -198 l-106 -63 -39 23 c-21 12 -236 136
-478 275 -242 140 -494 285 -560 323 -66 39 -232 135 -370 214 -137 79 -257
148 -265 154 -18 11 -957 552 -1015 584 l-40 23 0 1603 0 1604 65 36 c36 20
81 46 100 57 61 34 854 492 870 501 8 6 101 59 205 119 657 379 1040 600 1105
638 172 101 415 242 417 243 1 1 57 -31 125 -70z"/>
<path d="M2332 4952 l-22 -3 0 -333 c1 -358 4 -387 51 -436 24 -25 81 -50 114
-50 33 0 87 25 113 52 41 41 50 90 50 263 0 77 1 149 1 161 1 20 4 20 351 20
l350 0 -2 -1125 -3 -1126 -257 -1 c-249 -1 -259 -2 -305 -25 -115 -58 -114
-222 3 -279 39 -19 61 -20 715 -20 371 0 684 2 696 4 95 19 149 112 122 211
-12 43 -68 92 -116 101 -21 4 -146 8 -278 8 -132 0 -242 3 -245 7 -4 6 -5
2153 -1 2225 1 20 4 21 346 20 231 0 345 -4 346 -11 0 -5 1 -79 1 -164 1 -214
18 -265 105 -303 73 -32 156 -5 198 64 19 31 20 54 23 386 l3 352 -23 1 c-111
2 -2318 3 -2336 1z"/>
</g>
</svg>
